<svg width="174" height="48" viewBox="0 0 174 48" fill="none" xmlns="http://www.w3.org/2000/svg">
<path d="M85.2259 42.7619L84.2652 39.52H72.7558L71.7585 42.7619H59.6789L70.2978 12.8297H86.6895L97.3083 42.7619H85.2287H85.2259ZM75.3543 30.9323H81.661L79.4895 23.7716H77.5287L75.3543 30.9323Z" fill="#1D1B1E"/>
<path d="M134.21 27.9011V17.8441H105.559V28.2832H119.001L133.522 28.3674L134.21 27.9011Z" fill="#47B385"/>
<path d="M98.6259 38.048V28.64L112.453 18.7347V17.8441H98.9124V8.11584H127.774V17.4874L113.7 27.4292V28.2832H127.561V38.048H98.6259Z" fill="#1D1B1E"/>
<path d="M120.515 37.1911L134.21 27.9011L119.268 27.6061V28.4966L105.441 38.4019V47.81H134.376V38.0451H120.515V37.1911Z" fill="#47B385"/>
<path d="M161.041 42.7619L160.08 39.52H148.571L147.574 42.7619H135.494L146.113 12.8297H162.505L173.123 42.7619H161.044H161.041ZM151.169 30.9323H157.476L155.302 23.7716H153.341L151.167 30.9323H151.169Z" fill="#1D1B1E"/>
<path d="M46.8829 42.7619V12.8297H58.6058V42.7619H46.8829Z" fill="#1D1B1E"/>
<path d="M25.5554 0H0V42.759H16.7485V34.7668H25.6565C38.416 34.7668 44.7957 28.963 44.7957 17.3581C44.7957 5.75326 38.3823 0 25.5526 0H25.5554ZM29.8507 17.7823C29.8507 20.201 27.8899 22.1647 25.4711 22.1647H14.7933V12.6077H25.4711C27.8899 12.6077 29.8507 14.5686 29.8507 16.9901V17.7851V17.7823Z" fill="#1D1B1E"/>
</svg>
