<?xml version="1.0" standalone="no"?>
<!DOCTYPE svg PUBLIC "-//W3C//DTD SVG 20010904//EN"
 "http://www.w3.org/TR/2001/REC-SVG-20010904/DTD/svg10.dtd">
<svg version="1.0" xmlns="http://www.w3.org/2000/svg"
 width="151.000000pt" height="334.000000pt" viewBox="0 0 151.000000 334.000000"
 preserveAspectRatio="xMidYMid meet">

<g transform="translate(0.000000,334.000000) scale(0.100000,-0.100000)"
fill="#000000" stroke="none">
<path d="M293 3325 c-18 -8 -42 -29 -53 -47 -19 -30 -20 -46 -18 -171 l3 -139
37 -34 c21 -19 47 -34 58 -34 11 0 20 -2 20 -4 0 -2 -29 -64 -65 -138 -70
-147 -236 -626 -255 -738 -7 -44 -10 -337 -8 -920 l3 -855 33 -66 c35 -74 82
-121 151 -153 45 -20 59 -21 546 -21 l500 0 55 26 c102 48 157 114 186 221 21
79 20 1702 -1 1800 -14 68 -112 358 -166 496 -17 42 -61 135 -97 207 -37 71
-68 133 -70 137 -2 5 10 8 27 8 22 0 43 11 69 34 l37 34 3 139 c2 125 1 141
-18 171 -38 61 -44 62 -517 62 -345 -1 -434 -4 -460 -15z m165 -207 l3 -128
-64 0 c-36 0 -68 5 -75 12 -8 8 -12 48 -12 114 0 127 7 136 89 132 l56 -3 3
-127z m242 2 l0 -130 -75 0 -75 0 0 130 0 130 75 0 75 0 0 -130z m268 -2 l3
-128 -86 0 -85 0 0 130 0 131 83 -3 82 -3 3 -127z m216 116 c20 -20 23 -213 4
-232 -7 -7 -38 -12 -70 -12 l-58 0 0 130 0 130 54 0 c36 0 60 -5 70 -16z m-78
-454 c67 -119 129 -265 200 -468 103 -290 96 -262 102 -444 l5 -168 -657 0
-656 0 0 123 c0 68 5 150 11 183 5 32 48 172 94 311 80 240 136 378 205 506
l32 57 305 -2 306 -3 53 -95z m-86 -1257 c36 -21 50 -52 50 -113 l0 -50 -50 0
-50 0 0 43 c0 47 -12 73 -29 63 -7 -5 -11 -51 -11 -131 0 -80 4 -126 11 -131
16 -10 29 15 29 59 l0 37 50 0 50 0 0 -50 c0 -40 -5 -56 -28 -81 -52 -59 -178
-48 -202 17 -6 14 -10 85 -10 157 0 140 6 158 55 185 30 17 103 14 135 -5z
m-660 -170 c0 -209 -2 -213 -87 -213 l-53 0 0 34 c0 25 5 35 20 39 19 5 20 14
20 161 l0 156 50 0 50 0 0 -177z m150 12 c0 -91 4 -165 9 -165 16 0 21 43 21
188 l0 142 50 0 50 0 0 -160 c0 -180 -7 -208 -60 -230 -46 -19 -117 -8 -149
24 -26 26 -26 28 -29 196 l-4 170 56 0 56 0 0 -165z m280 -30 l0 -195 -55 0
-55 0 0 195 0 195 55 0 55 0 0 -195z m490 155 c0 -39 -1 -40 -35 -40 -33 0
-35 -2 -35 -35 0 -33 2 -35 35 -35 34 0 35 -1 35 -40 0 -39 -1 -40 -35 -40
-34 0 -35 -1 -35 -40 l0 -40 40 0 40 0 0 -40 0 -40 -90 0 -90 0 0 195 0 195
85 0 85 0 0 -40z m128 -862 l-3 -343 -26 -56 c-16 -33 -42 -68 -62 -83 -70
-54 -93 -56 -561 -56 -257 0 -449 5 -476 11 -71 16 -114 50 -147 116 l-28 58
-3 348 -3 347 656 0 656 0 -3 -342z"/>
</g>
</svg>
