<?xml version="1.0" encoding="iso-8859-1"?>
<!-- Uploaded to: SVG Repo, www.svgrepo.com, Generator: SVG Repo Mixer Tools -->
<svg fill="#000000" height="800px" width="800px" version="1.1" id="Layer_1" xmlns="http://www.w3.org/2000/svg" xmlns:xlink="http://www.w3.org/1999/xlink" 
	 viewBox="0 0 512.001 512.001" xml:space="preserve">
<g>
	<g>
		<path d="M487.881,88.612c-16.124-16.124-24.249-7.998-40.372-24.121c-16.124-16.124-7.997-24.249-24.121-40.372
			C407.267,7.997,399.141,16.122,383.019,0l-22.045,85.207c26.76,16.475,49.349,39.062,65.826,65.82l85.2-22.045
			C495.878,112.859,504.003,104.734,487.881,88.612z"/>
	</g>
</g>
<g>
	<g>
		<path d="M85.476,360.98L0.001,383.018c16.122,16.122,7.997,24.248,24.12,40.37c16.124,16.124,24.249,7.997,40.372,24.121
			c16.124,16.124,7.997,24.249,24.121,40.372c16.122,16.122,24.248,7.997,40.37,24.12l22.038-85.467
			C124.393,410.099,101.906,387.61,85.476,360.98z"/>
	</g>
</g>
<g>
	<g>
		<path d="M239.416,257.855c-5.309-47.785-10.323-92.919-60.936-143.619l-3.98-3.988c-50.938,28.591-85.364,83.111-85.364,145.682
			c0,92.208,74.749,166.957,166.957,166.957c16.816,0,33.046-2.497,48.354-7.121C250.657,359.019,244.945,307.617,239.416,257.855z"
			/>
	</g>
</g>
<g>
	<g>
		<path d="M256.092,88.973c-16.907,0-33.223,2.522-48.603,7.196c53.867,56.782,59.581,108.212,65.114,158
			c5.308,47.766,10.32,92.885,60.877,143.56l3.991,4c51.055-28.557,85.578-83.143,85.578-145.801
			C423.048,163.722,348.3,88.973,256.092,88.973z"/>
	</g>
</g>
</svg>