<?xml version="1.0" standalone="no"?>
<!DOCTYPE svg PUBLIC "-//W3C//DTD SVG 20010904//EN"
 "http://www.w3.org/TR/2001/REC-SVG-20010904/DTD/svg10.dtd">
<svg version="1.0" xmlns="http://www.w3.org/2000/svg"
 width="225.000000pt" height="225.000000pt" viewBox="0 0 225.000000 225.000000"
 preserveAspectRatio="xMidYMid meet">

<g transform="translate(0.000000,225.000000) scale(0.100000,-0.100000)"
fill="#000000" stroke="none">
<path d="M612 2238 c-18 -18 -14 -43 9 -64 26 -23 58 -90 59 -122 0 -33 -27
-80 -75 -133 -61 -65 -79 -104 -79 -169 0 -63 22 -116 69 -166 36 -38 47 -41
69 -18 22 21 21 24 -19 76 -37 47 -52 99 -41 142 3 14 29 51 57 83 70 80 89
120 89 190 0 46 -6 69 -30 110 -41 72 -81 98 -108 71z"/>
<path d="M1002 2238 c-19 -19 -15 -34 23 -83 62 -82 55 -143 -28 -232 -52 -57
-74 -96 -83 -151 -9 -55 18 -131 66 -184 32 -36 41 -41 57 -32 29 18 27 50 -7
92 -32 41 -47 94 -36 136 3 14 31 54 61 90 31 36 62 81 70 100 32 77 11 176
-53 244 -32 34 -51 39 -70 20z"/>
<path d="M1473 2243 c-21 -8 -15 -49 11 -80 35 -42 46 -68 46 -108 0 -45 -11
-67 -68 -130 -96 -106 -108 -207 -38 -309 41 -60 58 -71 87 -56 27 15 24 33
-15 84 -63 82 -55 147 28 236 63 68 80 105 80 175 0 66 -15 103 -65 160 -30
34 -41 39 -66 28z"/>
<path d="M144 1386 c-39 -17 -44 -30 -44 -126 0 -223 44 -441 121 -599 43 -89
63 -117 133 -186 58 -58 104 -92 161 -122 l80 -42 -254 -1 -253 0 -34 -34
c-49 -49 -42 -115 15 -146 10 -5 135 -19 277 -30 l259 -21 29 -30 c15 -17 39
-35 53 -40 13 -5 177 -9 364 -9 367 0 376 1 415 54 19 24 24 25 297 45 281 21
327 30 341 66 9 25 7 74 -4 96 -24 44 -54 49 -317 50 l-248 0 43 19 c62 28
129 75 192 135 40 39 66 55 95 60 147 25 281 149 336 312 35 101 34 247 -2
323 -35 74 -70 114 -124 139 -29 14 -45 27 -45 40 0 10 -9 26 -21 37 -19 17
-41 19 -230 22 l-209 3 0 -107 0 -108 80 -82 80 -82 0 -161 c0 -93 -4 -171
-10 -182 -10 -18 -23 -19 -183 -19 -121 0 -177 4 -185 12 -8 8 -12 63 -12 183
l0 171 75 74 75 74 0 113 0 113 -657 0 c-530 -1 -664 -3 -689 -14z m1938 -183
c53 -57 63 -90 63 -208 0 -103 -2 -114 -31 -176 -39 -81 -92 -142 -159 -180
-27 -16 -53 -29 -57 -29 -4 0 9 33 27 73 55 120 105 350 105 490 0 66 12 72
52 30z m-1725 -165 c4 -7 17 -51 29 -98 32 -125 78 -214 149 -286 70 -71 136
-107 243 -135 87 -22 95 -27 90 -60 -4 -35 -53 -36 -152 -5 -193 60 -328 204
-394 416 -29 96 -36 148 -22 165 15 18 46 19 57 3z"/>
<path d="M1477 1052 l-57 -58 0 -127 0 -127 115 0 115 0 0 128 0 128 -58 57
-58 57 -57 -58z"/>
</g>
</svg>
