<?xml version="1.0" encoding="UTF-8"?><svg xmlns="http://www.w3.org/2000/svg" viewBox="0 0 725.89 1116.43"><defs><style>.h{fill:#172c59;}.i{fill:#fff;}.j{fill:#3cc5f0;}.k{fill:#ea8088;}.l{fill:#7fd3f4;}.m{clip-path:url(#e);}.n{clip-path:url(#d);}.o{fill:#c5403f;}.p{fill:#f7941d;}.q{clip-path:url(#f);}.r{fill:#d1d3d4;}.s{clip-path:url(#g);}</style><clipPath id="d"><circle class="o" cx="303.73" cy="194.57" r="36.99" transform="translate(23.18 421.29) rotate(-71.59)"/></clipPath><clipPath id="e"><circle class="o" cx="417.35" cy="194.57" r="36.99" transform="translate(-15.34 352.1) rotate(-45)"/></clipPath><clipPath id="f"><rect class="j" x="237.46" y="329.54" width="246.16" height="345.78" rx="21.38" ry="21.38"/></clipPath><clipPath id="g"><path class="h" d="M281.49,329.54h152.55v121.97c0,42.1-34.18,76.28-76.28,76.28h0c-42.1,0-76.28-34.18-76.28-76.28v-121.97h0Z"/></clipPath></defs><g id="a"/><g id="b"><g id="c"><g><g><rect class="o" x="316.01" y="300.11" width="86.53" height="29.43"/><g><g><rect class="l" x="233.74" y="125.04" width="253.61" height="175.07" rx="18.09" ry="18.09"/><g><g><circle class="h" cx="303.73" cy="194.57" r="42.71" transform="translate(6.99 399.65) rotate(-67.29)"/><g><circle class="o" cx="303.73" cy="194.57" r="36.99" transform="translate(23.18 421.29) rotate(-71.59)"/><g class="n"><rect class="k" x="302.19" y="151.97" width="22.87" height="85.21"/><rect class="k" x="284.7" y="151.97" width="12.58" height="85.21"/></g></g></g><g><circle class="h" cx="417.35" cy="194.57" r="42.71" transform="translate(90.46 518.89) rotate(-69.77)"/><g><circle class="o" cx="417.35" cy="194.57" r="36.99" transform="translate(-15.34 352.1) rotate(-45)"/><g class="m"><rect class="k" x="394.9" y="151.89" width="19.61" height="91.59"/><rect class="k" x="419.1" y="152.81" width="8.37" height="91.59"/><rect class="k" x="430.6" y="152.89" width="8.37" height="91.59"/></g></g></g></g><g><rect class="i" x="306.57" y="253.41" width="107.94" height="30.14" rx="5.73" ry="5.73"/><g><rect class="h" x="316.01" y="253.41" width="5.07" height="30.14"/><rect class="h" x="328.01" y="253.41" width="5.07" height="30.14"/><rect class="h" x="340.01" y="253.41" width="5.07" height="30.14"/><rect class="h" x="352.01" y="253.41" width="5.07" height="30.14"/><rect class="h" x="364.01" y="253.41" width="5.07" height="30.14"/><rect class="h" x="376.01" y="253.41" width="5.07" height="30.14"/><rect class="h" x="388.01" y="253.41" width="5.07" height="30.14"/><rect class="h" x="400.01" y="253.41" width="5.07" height="30.14"/></g></g><rect class="j" x="283.55" y="106.05" width="153.99" height="18.99"/></g><rect class="h" x="208.19" y="157.58" width="25.55" height="103.72"/><rect class="h" x="487.34" y="160.72" width="25.55" height="103.72"/></g><g><rect class="j" x="237.46" y="329.54" width="246.16" height="345.78" rx="21.38" ry="21.38"/><g class="q"><rect class="l" x="223.67" y="611.81" width="273.36" height="89.55"/></g></g><g><path class="h" d="M281.49,329.54h152.55v121.97c0,42.1-34.18,76.28-76.28,76.28h0c-42.1,0-76.28-34.18-76.28-76.28v-121.97h0Z"/><g class="s"><rect class="r" x="315.07" y="384.65" width="12" height="69.29"/><rect class="r" x="339.07" y="384.65" width="12" height="69.29"/><rect class="r" x="363.08" y="384.65" width="12" height="69.29"/><rect class="r" x="387.08" y="384.65" width="12" height="69.29"/></g></g><g><rect class="h" x="266.74" y="675.33" width="39.83" height="315.75"/><rect class="h" x="414.13" y="675.33" width="39.83" height="315.75"/><circle class="j" cx="286.66" cy="819.45" r="35.14" transform="translate(-286.1 167.05) rotate(-22)"/><circle class="j" cx="434.04" cy="823.62" r="35.14" transform="translate(-410.85 432.6) rotate(-37.38)"/><g><path class="j" d="M306.57,1116.43h-82.9l24.24-109.12c2.11-9.48,10.51-16.22,20.22-16.22h38.44v125.35Z"/><path class="h" d="M306.57,1116.43h-100.96c0-21.28,17.25-38.53,38.53-38.53h62.43v38.53Z"/><rect class="r" x="225.49" y="1100.35" width="14.07" height="16.07"/><rect class="r" x="248.5" y="1100.35" width="14.07" height="16.07"/><rect class="r" x="270.19" y="1100.35" width="14.07" height="16.07"/></g><g><path class="j" d="M414.13,1116.43h82.9l-24.24-109.12c-2.11-9.48-10.51-16.22-20.22-16.22h-38.44v125.35Z"/><path class="h" d="M414.13,1116.43h100.96c0-21.28-17.25-38.53-38.53-38.53h-62.43v38.53Z"/><rect class="r" x="481.14" y="1100.35" width="14.07" height="16.07" transform="translate(976.35 2216.78) rotate(180)"/><rect class="r" x="458.13" y="1100.35" width="14.07" height="16.07" transform="translate(930.33 2216.78) rotate(180)"/><rect class="r" x="436.43" y="1100.35" width="14.07" height="16.07" transform="translate(886.94 2216.78) rotate(180)"/></g><g><rect class="r" x="279.26" y="885.41" width="14.79" height="105.67"/><rect class="r" x="426.65" y="885.41" width="14.79" height="105.67"/></g><g><rect class="r" x="279.45" y="675.33" width="14.79" height="21.15"/><rect class="r" x="426.84" y="675.33" width="14.79" height="21.15"/></g></g><g><g><polygon class="h" points="237.46 348.42 208.19 348.42 167.9 348.42 167.9 418.79 167.9 419.29 181.66 419.29 181.66 567.84 194.43 567.03 194.43 419.29 237.46 419.29 237.46 348.42"/><rect class="r" x="181.66" y="394.38" width="12.77" height="24.91"/></g><circle class="j" cx="187.44" cy="574.49" r="19.54"/></g><g><g><polygon class="h" points="483.62 348.42 512.9 348.42 553.18 348.42 553.18 418.79 553.18 419.29 539.43 419.29 539.43 567.84 526.65 567.03 526.65 419.29 483.62 419.29 483.62 348.42"/><rect class="r" x="526.65" y="394.38" width="12.77" height="24.91" transform="translate(1066.08 813.67) rotate(180)"/></g><circle class="j" cx="533.65" cy="574.49" r="19.54"/></g><g><path class="r" d="M156.5,528.61l369.16,108.56c1.7,37.02,26.5,70.55,64.05,81.59,39.78,11.7,81.19-5.57,101.65-39.47l-57.01,1.28c-19.24,.43-35.82-13.47-38.76-32.49h0c-3.5-22.75,13.68-43.43,36.69-44.16l66.31-2.09c-9.51-25.42-30.44-46.21-58.48-54.45-37.55-11.04-76.55,3.73-98.02,33.93l-369.16-108.56c-1.7-37.02-26.5-70.55-64.05-81.59-39.77-11.7-81.19,5.57-101.65,39.47l57.01-1.28c19.24-.43,35.82,13.47,38.76,32.49h0c3.5,22.75-13.68,43.43-36.69,44.16L0,508.08c9.51,25.42,30.44,46.21,58.48,54.45,37.55,11.04,76.55-3.73,98.02-33.93Z"/><path class="i" d="M197.34,510.27h0c1.91-6.48,8.71-10.19,15.19-8.29l261.98,77.04c6.48,1.91,10.19,8.71,8.29,15.19h0c-1.91,6.48-8.71,10.19-15.19,8.29l-261.98-77.04c-6.48-1.91-10.19-8.71-8.29-15.19Z"/></g><g><path class="h" d="M261.11,465.53h0c-10.02-4.4-21.7,.16-26.1,10.18l-19.46,44.34,9.34,4.1-39.02,44.49c-2.33,2.65-2.06,6.69,.59,9.01h0c2.65,2.33,6.69,2.06,9.01-.59l41.69-47.53,14.67,6.44,19.46-44.34c4.4-10.02-.16-21.7-10.18-26.1Z"/><polygon class="j" points="215.55 520.05 251.83 535.98 256.51 525.3 220.44 508.91 215.55 520.05"/></g><line class="j" x1="503.07" y1="581.17" x2="489.78" y2="582.87"/><g><path class="h" d="M521.31,630.75l-32.7,3.01-3.62-39.41c-.83-9.03,5.82-17.02,14.85-17.85h0c9.03-.83,17.02,5.82,17.85,14.85l3.62,39.41Z"/><rect class="j" x="488.1" y="622.61" width="32.84" height="9.66" transform="translate(-55.33 48.83) rotate(-5.25)"/><path class="h" d="M506.31,646.93h0c-3.68,.34-6.93-2.37-7.27-6.04l-.74-8.02,13.31-1.22,.74,8.02c.34,3.68-2.37,6.93-6.04,7.27Z"/></g><g><rect class="h" x="352.01" y="30.11" width="14.53" height="75.94"/><circle class="o" cx="359.06" cy="22.02" r="22.02"/><circle class="k" cx="364.01" cy="14.97" r="12" transform="translate(266.23 365.92) rotate(-76.79)"/></g><g><rect class="k" x="220.96" y="171.39" width="12.78" height="12.78"/><rect class="k" x="220.96" y="192.5" width="12.78" height="12.78"/><rect class="k" x="220.96" y="213.61" width="12.78" height="12.78"/><rect class="k" x="220.96" y="234.72" width="12.78" height="12.78"/></g><g><rect class="k" x="487.25" y="174.53" width="12.78" height="12.78"/><rect class="k" x="487.25" y="195.64" width="12.78" height="12.78"/><rect class="k" x="487.25" y="216.75" width="12.78" height="12.78"/><rect class="k" x="487.25" y="237.85" width="12.78" height="12.78"/></g></g><g><polygon class="p" points="563.03 283.55 638.52 182.5 641.16 237.85 725.89 180.92 621.97 291.04 623.31 231.56 563.03 283.55"/><polygon class="p" points="173.57 685.9 33.82 819.45 113.04 794.53 27.99 914.73 202.68 752.45 141.02 758.28 173.57 685.9"/><polygon class="p" points="167.9 311.27 141.61 215.28 121.17 249.64 83.1 183.72 112.82 308.14 134.18 265.43 167.9 311.27"/><polygon class="p" points="505.82 746.62 523.07 809.61 536.48 787.06 561.47 830.33 541.97 748.68 527.95 776.7 505.82 746.62"/></g></g></g></g></svg>